<mxfile host="Electron" modified="2024-06-21T02:01:20.315Z" agent="Mozilla/5.0 (Macintosh; Intel Mac OS X 10_15_7) AppleWebKit/537.36 (KHTML, like Gecko) draw.io/24.5.3 Chrome/124.0.6367.207 Electron/30.0.6 Safari/537.36" etag="OxX5H6bbo6C3qBwjKk7V" version="24.5.3" type="device" pages="2">
  <diagram name="MaximumSubarray" id="nT-vpXsCs1bK4w2tRn-D">
    <mxGraphModel dx="1026" dy="772" grid="1" gridSize="10" guides="1" tooltips="1" connect="1" arrows="1" fold="1" page="1" pageScale="1" pageWidth="850" pageHeight="1100" math="0" shadow="0">
      <root>
        <mxCell id="0" />
        <mxCell id="1" parent="0" />
        <mxCell id="H8Bt9X8JEDTLtaWw7Q8g-60" value="" style="edgeStyle=orthogonalEdgeStyle;rounded=0;orthogonalLoop=1;jettySize=auto;html=1;" parent="1" source="H8Bt9X8JEDTLtaWw7Q8g-1" target="H8Bt9X8JEDTLtaWw7Q8g-59" edge="1">
          <mxGeometry relative="1" as="geometry" />
        </mxCell>
        <mxCell id="H8Bt9X8JEDTLtaWw7Q8g-1" value="" style="ellipse;fillColor=strokeColor;html=1;" parent="1" vertex="1">
          <mxGeometry x="370" y="30" width="30" height="30" as="geometry" />
        </mxCell>
        <mxCell id="H8Bt9X8JEDTLtaWw7Q8g-23" value="" style="edgeStyle=orthogonalEdgeStyle;rounded=0;orthogonalLoop=1;jettySize=auto;html=1;" parent="1" source="H8Bt9X8JEDTLtaWw7Q8g-21" target="H8Bt9X8JEDTLtaWw7Q8g-22" edge="1">
          <mxGeometry relative="1" as="geometry" />
        </mxCell>
        <mxCell id="H8Bt9X8JEDTLtaWw7Q8g-52" value="Yes" style="edgeLabel;html=1;align=center;verticalAlign=middle;resizable=0;points=[];" parent="H8Bt9X8JEDTLtaWw7Q8g-23" vertex="1" connectable="0">
          <mxGeometry x="-0.57" y="-1" relative="1" as="geometry">
            <mxPoint as="offset" />
          </mxGeometry>
        </mxCell>
        <mxCell id="H8Bt9X8JEDTLtaWw7Q8g-54" value="" style="edgeStyle=orthogonalEdgeStyle;rounded=0;orthogonalLoop=1;jettySize=auto;html=1;" parent="1" source="H8Bt9X8JEDTLtaWw7Q8g-21" target="H8Bt9X8JEDTLtaWw7Q8g-53" edge="1">
          <mxGeometry relative="1" as="geometry" />
        </mxCell>
        <mxCell id="H8Bt9X8JEDTLtaWw7Q8g-55" value="No" style="edgeLabel;html=1;align=center;verticalAlign=middle;resizable=0;points=[];" parent="H8Bt9X8JEDTLtaWw7Q8g-54" vertex="1" connectable="0">
          <mxGeometry x="-0.0556" y="1" relative="1" as="geometry">
            <mxPoint as="offset" />
          </mxGeometry>
        </mxCell>
        <mxCell id="H8Bt9X8JEDTLtaWw7Q8g-21" value="while i &amp;lt; nums.length" style="rhombus;whiteSpace=wrap;html=1;" parent="1" vertex="1">
          <mxGeometry x="345" y="190" width="80" height="80" as="geometry" />
        </mxCell>
        <mxCell id="H8Bt9X8JEDTLtaWw7Q8g-25" value="" style="edgeStyle=orthogonalEdgeStyle;rounded=0;orthogonalLoop=1;jettySize=auto;html=1;" parent="1" source="H8Bt9X8JEDTLtaWw7Q8g-22" target="H8Bt9X8JEDTLtaWw7Q8g-24" edge="1">
          <mxGeometry relative="1" as="geometry" />
        </mxCell>
        <mxCell id="H8Bt9X8JEDTLtaWw7Q8g-32" value="Yes" style="edgeLabel;html=1;align=center;verticalAlign=middle;resizable=0;points=[];" parent="H8Bt9X8JEDTLtaWw7Q8g-25" vertex="1" connectable="0">
          <mxGeometry x="-0.3043" relative="1" as="geometry">
            <mxPoint as="offset" />
          </mxGeometry>
        </mxCell>
        <mxCell id="H8Bt9X8JEDTLtaWw7Q8g-34" value="" style="edgeStyle=orthogonalEdgeStyle;rounded=0;orthogonalLoop=1;jettySize=auto;html=1;" parent="1" source="H8Bt9X8JEDTLtaWw7Q8g-22" target="H8Bt9X8JEDTLtaWw7Q8g-33" edge="1">
          <mxGeometry relative="1" as="geometry" />
        </mxCell>
        <mxCell id="H8Bt9X8JEDTLtaWw7Q8g-35" value="No" style="edgeLabel;html=1;align=center;verticalAlign=middle;resizable=0;points=[];" parent="H8Bt9X8JEDTLtaWw7Q8g-34" vertex="1" connectable="0">
          <mxGeometry x="-0.0833" y="1" relative="1" as="geometry">
            <mxPoint as="offset" />
          </mxGeometry>
        </mxCell>
        <mxCell id="H8Bt9X8JEDTLtaWw7Q8g-22" value="if tempSum &amp;lt;= 0" style="rhombus;whiteSpace=wrap;html=1;" parent="1" vertex="1">
          <mxGeometry x="345" y="300" width="80" height="80" as="geometry" />
        </mxCell>
        <mxCell id="H8Bt9X8JEDTLtaWw7Q8g-27" value="" style="edgeStyle=orthogonalEdgeStyle;rounded=0;orthogonalLoop=1;jettySize=auto;html=1;" parent="1" source="H8Bt9X8JEDTLtaWw7Q8g-24" target="H8Bt9X8JEDTLtaWw7Q8g-26" edge="1">
          <mxGeometry relative="1" as="geometry" />
        </mxCell>
        <mxCell id="H8Bt9X8JEDTLtaWw7Q8g-24" value="if current &amp;gt; tempSum" style="rhombus;whiteSpace=wrap;html=1;" parent="1" vertex="1">
          <mxGeometry x="240" y="390" width="80" height="80" as="geometry" />
        </mxCell>
        <mxCell id="H8Bt9X8JEDTLtaWw7Q8g-29" value="" style="edgeStyle=orthogonalEdgeStyle;rounded=0;orthogonalLoop=1;jettySize=auto;html=1;" parent="1" source="H8Bt9X8JEDTLtaWw7Q8g-26" target="H8Bt9X8JEDTLtaWw7Q8g-28" edge="1">
          <mxGeometry relative="1" as="geometry" />
        </mxCell>
        <mxCell id="H8Bt9X8JEDTLtaWw7Q8g-26" value="tempSum = current" style="whiteSpace=wrap;html=1;" parent="1" vertex="1">
          <mxGeometry x="220" y="520" width="120" height="60" as="geometry" />
        </mxCell>
        <mxCell id="H8Bt9X8JEDTLtaWw7Q8g-31" value="" style="edgeStyle=orthogonalEdgeStyle;rounded=0;orthogonalLoop=1;jettySize=auto;html=1;" parent="1" source="H8Bt9X8JEDTLtaWw7Q8g-28" target="H8Bt9X8JEDTLtaWw7Q8g-30" edge="1">
          <mxGeometry relative="1" as="geometry" />
        </mxCell>
        <mxCell id="H8Bt9X8JEDTLtaWw7Q8g-28" value="if tempSum &amp;gt; sum" style="rhombus;whiteSpace=wrap;html=1;" parent="1" vertex="1">
          <mxGeometry x="240" y="620" width="80" height="80" as="geometry" />
        </mxCell>
        <mxCell id="H8Bt9X8JEDTLtaWw7Q8g-43" value="" style="edgeStyle=orthogonalEdgeStyle;rounded=0;orthogonalLoop=1;jettySize=auto;html=1;" parent="1" source="H8Bt9X8JEDTLtaWw7Q8g-30" target="H8Bt9X8JEDTLtaWw7Q8g-42" edge="1">
          <mxGeometry relative="1" as="geometry" />
        </mxCell>
        <mxCell id="H8Bt9X8JEDTLtaWw7Q8g-30" value="sum = tempSum" style="whiteSpace=wrap;html=1;" parent="1" vertex="1">
          <mxGeometry x="220" y="750" width="120" height="60" as="geometry" />
        </mxCell>
        <mxCell id="H8Bt9X8JEDTLtaWw7Q8g-37" value="" style="edgeStyle=orthogonalEdgeStyle;rounded=0;orthogonalLoop=1;jettySize=auto;html=1;" parent="1" source="H8Bt9X8JEDTLtaWw7Q8g-33" target="H8Bt9X8JEDTLtaWw7Q8g-36" edge="1">
          <mxGeometry relative="1" as="geometry" />
        </mxCell>
        <mxCell id="H8Bt9X8JEDTLtaWw7Q8g-40" value="Yes" style="edgeLabel;html=1;align=center;verticalAlign=middle;resizable=0;points=[];" parent="H8Bt9X8JEDTLtaWw7Q8g-37" vertex="1" connectable="0">
          <mxGeometry x="-0.3792" y="-2" relative="1" as="geometry">
            <mxPoint as="offset" />
          </mxGeometry>
        </mxCell>
        <mxCell id="H8Bt9X8JEDTLtaWw7Q8g-48" value="" style="edgeStyle=orthogonalEdgeStyle;rounded=0;orthogonalLoop=1;jettySize=auto;html=1;" parent="1" source="H8Bt9X8JEDTLtaWw7Q8g-33" target="H8Bt9X8JEDTLtaWw7Q8g-47" edge="1">
          <mxGeometry relative="1" as="geometry" />
        </mxCell>
        <mxCell id="H8Bt9X8JEDTLtaWw7Q8g-49" value="No" style="edgeLabel;html=1;align=center;verticalAlign=middle;resizable=0;points=[];" parent="H8Bt9X8JEDTLtaWw7Q8g-48" vertex="1" connectable="0">
          <mxGeometry x="-0.1111" y="1" relative="1" as="geometry">
            <mxPoint as="offset" />
          </mxGeometry>
        </mxCell>
        <mxCell id="H8Bt9X8JEDTLtaWw7Q8g-33" value="if tempSum + current &amp;gt; 0" style="rhombus;whiteSpace=wrap;html=1;" parent="1" vertex="1">
          <mxGeometry x="505" y="300" width="80" height="80" as="geometry" />
        </mxCell>
        <mxCell id="H8Bt9X8JEDTLtaWw7Q8g-39" value="" style="edgeStyle=orthogonalEdgeStyle;rounded=0;orthogonalLoop=1;jettySize=auto;html=1;" parent="1" source="H8Bt9X8JEDTLtaWw7Q8g-36" target="H8Bt9X8JEDTLtaWw7Q8g-38" edge="1">
          <mxGeometry relative="1" as="geometry" />
        </mxCell>
        <mxCell id="H8Bt9X8JEDTLtaWw7Q8g-41" value="Yes" style="edgeLabel;html=1;align=center;verticalAlign=middle;resizable=0;points=[];" parent="H8Bt9X8JEDTLtaWw7Q8g-39" vertex="1" connectable="0">
          <mxGeometry x="-0.4033" y="-1" relative="1" as="geometry">
            <mxPoint as="offset" />
          </mxGeometry>
        </mxCell>
        <mxCell id="H8Bt9X8JEDTLtaWw7Q8g-45" style="edgeStyle=orthogonalEdgeStyle;rounded=0;orthogonalLoop=1;jettySize=auto;html=1;" parent="1" source="H8Bt9X8JEDTLtaWw7Q8g-36" target="H8Bt9X8JEDTLtaWw7Q8g-42" edge="1">
          <mxGeometry relative="1" as="geometry">
            <Array as="points">
              <mxPoint x="445" y="460" />
            </Array>
          </mxGeometry>
        </mxCell>
        <mxCell id="H8Bt9X8JEDTLtaWw7Q8g-46" value="No" style="edgeLabel;html=1;align=center;verticalAlign=middle;resizable=0;points=[];" parent="H8Bt9X8JEDTLtaWw7Q8g-45" vertex="1" connectable="0">
          <mxGeometry x="-0.476" y="-3" relative="1" as="geometry">
            <mxPoint as="offset" />
          </mxGeometry>
        </mxCell>
        <mxCell id="H8Bt9X8JEDTLtaWw7Q8g-36" value="if tempSum + current &amp;gt; sum" style="rhombus;whiteSpace=wrap;html=1;" parent="1" vertex="1">
          <mxGeometry x="505" y="420" width="80" height="80" as="geometry" />
        </mxCell>
        <mxCell id="H8Bt9X8JEDTLtaWw7Q8g-44" style="edgeStyle=orthogonalEdgeStyle;rounded=0;orthogonalLoop=1;jettySize=auto;html=1;entryX=0.5;entryY=0;entryDx=0;entryDy=0;" parent="1" source="H8Bt9X8JEDTLtaWw7Q8g-38" target="H8Bt9X8JEDTLtaWw7Q8g-42" edge="1">
          <mxGeometry relative="1" as="geometry">
            <Array as="points">
              <mxPoint x="545" y="780" />
              <mxPoint x="445" y="780" />
            </Array>
          </mxGeometry>
        </mxCell>
        <mxCell id="H8Bt9X8JEDTLtaWw7Q8g-38" value="sum = tempSum" style="whiteSpace=wrap;html=1;" parent="1" vertex="1">
          <mxGeometry x="485" y="550" width="120" height="60" as="geometry" />
        </mxCell>
        <mxCell id="H8Bt9X8JEDTLtaWw7Q8g-51" style="edgeStyle=orthogonalEdgeStyle;rounded=0;orthogonalLoop=1;jettySize=auto;html=1;entryX=0;entryY=0.5;entryDx=0;entryDy=0;" parent="1" source="H8Bt9X8JEDTLtaWw7Q8g-42" target="H8Bt9X8JEDTLtaWw7Q8g-21" edge="1">
          <mxGeometry relative="1" as="geometry">
            <mxPoint x="140" y="290" as="targetPoint" />
            <Array as="points">
              <mxPoint x="130" y="910" />
              <mxPoint x="130" y="230" />
            </Array>
          </mxGeometry>
        </mxCell>
        <mxCell id="H8Bt9X8JEDTLtaWw7Q8g-42" value="i++" style="whiteSpace=wrap;html=1;" parent="1" vertex="1">
          <mxGeometry x="385" y="880" width="120" height="60" as="geometry" />
        </mxCell>
        <mxCell id="H8Bt9X8JEDTLtaWw7Q8g-50" style="edgeStyle=orthogonalEdgeStyle;rounded=0;orthogonalLoop=1;jettySize=auto;html=1;entryX=0.5;entryY=0;entryDx=0;entryDy=0;exitX=0.5;exitY=1;exitDx=0;exitDy=0;" parent="1" source="H8Bt9X8JEDTLtaWw7Q8g-47" target="H8Bt9X8JEDTLtaWw7Q8g-42" edge="1">
          <mxGeometry relative="1" as="geometry">
            <Array as="points">
              <mxPoint x="705" y="780" />
              <mxPoint x="445" y="780" />
            </Array>
          </mxGeometry>
        </mxCell>
        <mxCell id="H8Bt9X8JEDTLtaWw7Q8g-47" value="tempSum = current" style="whiteSpace=wrap;html=1;" parent="1" vertex="1">
          <mxGeometry x="645" y="310" width="120" height="60" as="geometry" />
        </mxCell>
        <mxCell id="H8Bt9X8JEDTLtaWw7Q8g-57" style="edgeStyle=orthogonalEdgeStyle;rounded=0;orthogonalLoop=1;jettySize=auto;html=1;entryX=0;entryY=0.5;entryDx=0;entryDy=0;" parent="1" source="H8Bt9X8JEDTLtaWw7Q8g-53" target="H8Bt9X8JEDTLtaWw7Q8g-56" edge="1">
          <mxGeometry relative="1" as="geometry" />
        </mxCell>
        <mxCell id="H8Bt9X8JEDTLtaWw7Q8g-53" value="return sum" style="whiteSpace=wrap;html=1;" parent="1" vertex="1">
          <mxGeometry x="485" y="200" width="120" height="60" as="geometry" />
        </mxCell>
        <mxCell id="H8Bt9X8JEDTLtaWw7Q8g-56" value="" style="ellipse;html=1;shape=endState;fillColor=strokeColor;" parent="1" vertex="1">
          <mxGeometry x="660" y="215" width="30" height="30" as="geometry" />
        </mxCell>
        <mxCell id="H8Bt9X8JEDTLtaWw7Q8g-61" value="" style="edgeStyle=orthogonalEdgeStyle;rounded=0;orthogonalLoop=1;jettySize=auto;html=1;" parent="1" source="H8Bt9X8JEDTLtaWw7Q8g-59" target="H8Bt9X8JEDTLtaWw7Q8g-21" edge="1">
          <mxGeometry relative="1" as="geometry" />
        </mxCell>
        <mxCell id="H8Bt9X8JEDTLtaWw7Q8g-59" value="&lt;span style=&quot;&quot;&gt;sum=nums[0]&lt;/span&gt;&lt;div&gt;&lt;span style=&quot;background-color: initial;&quot;&gt;tempSum=num[0]&lt;/span&gt;&lt;div style=&quot;&quot;&gt;i = 1&lt;/div&gt;&lt;/div&gt;" style="whiteSpace=wrap;html=1;align=center;" parent="1" vertex="1">
          <mxGeometry x="325" y="100" width="120" height="60" as="geometry" />
        </mxCell>
      </root>
    </mxGraphModel>
  </diagram>
  <diagram id="RCoDvqrYqgbAU-kAeVzZ" name="Page-2">
    <mxGraphModel dx="1026" dy="772" grid="1" gridSize="10" guides="1" tooltips="1" connect="1" arrows="1" fold="1" page="1" pageScale="1" pageWidth="850" pageHeight="1100" math="0" shadow="0">
      <root>
        <mxCell id="0" />
        <mxCell id="1" parent="0" />
      </root>
    </mxGraphModel>
  </diagram>
</mxfile>
